<svg xmlns="http://www.w3.org/2000/svg" xmlns:xlink="http://www.w3.org/1999/xlink" width="2560" zoomAndPan="magnify" viewBox="0 0 1920 809.999993" height="1080" preserveAspectRatio="xMidYMid meet" version="1.0"><defs><filter x="0%" y="0%" width="100%" height="100%" id="b95c828b30"><feColorMatrix values="0 0 0 0 1 0 0 0 0 1 0 0 0 0 1 0 0 0 1 0" color-interpolation-filters="sRGB"/></filter><clipPath id="69eacfc038"><path d="M 824 0 L 1920 0 L 1920 810 L 824 810 Z M 824 0 " clip-rule="nonzero"/></clipPath><clipPath id="44ba2bcaa7"><path d="M 554.496094 603.925781 L 1917.84375 -177.171875 L 2508.792969 854.289062 L 1145.445312 1635.382812 Z M 554.496094 603.925781 " clip-rule="nonzero"/></clipPath><clipPath id="c6c1552b05"><path d="M 554.496094 603.925781 L 1917.84375 -177.171875 L 2508.792969 854.289062 L 1145.445312 1635.382812 Z M 554.496094 603.925781 " clip-rule="nonzero"/></clipPath><clipPath id="83d3c0461a"><path d="M 1917.578125 -177.015625 L 2508.550781 854.484375 L 1146.042969 1635.097656 L 824.164062 1073.28125 C 827.492188 861.007812 939.144531 655.230469 1135.726562 542.601562 C 1188.511719 512.363281 1243.953125 490.804688 1300.453125 477.472656 C 1491.128906 432.4375 1664.464844 302.546875 1715.800781 113.480469 C 1744.789062 6.710938 1806.777344 -113.539062 1917.578125 -177.015625 Z M 1917.578125 -177.015625 " clip-rule="nonzero"/></clipPath><mask id="614854c91f"><g filter="url(#b95c828b30)"><rect x="-192" width="2304" fill="#000000" y="-80.999999" height="971.999992" fill-opacity="0.3"/></g></mask><clipPath id="8dd7c928c0"><path d="M 0 0 L 829 0 L 829 810 L 0 810 Z M 0 0 " clip-rule="nonzero"/></clipPath><clipPath id="89a080dd86"><path d="M 1162.515625 327.609375 L -60.078125 1314.570312 L -806.777344 389.601562 L 415.816406 -597.359375 Z M 1162.515625 327.609375 " clip-rule="nonzero"/></clipPath><clipPath id="1da0551016"><path d="M 1162.515625 327.609375 L -60.078125 1314.570312 L -806.777344 389.601562 L 415.816406 -597.359375 Z M 1162.515625 327.609375 " clip-rule="nonzero"/></clipPath><clipPath id="b88d47213c"><path d="M -59.835938 1314.375 L -806.566406 389.371094 L 415.273438 -596.980469 L 821.988281 -93.167969 C 852.285156 116.957031 774.597656 337.808594 598.308594 480.117188 C 550.976562 518.332031 499.644531 548.386719 445.964844 570.492188 C 264.8125 645.128906 114.210938 800.808594 93.4375 995.613281 C 81.707031 1105.625 39.523438 1234.167969 -59.835938 1314.375 Z M -59.835938 1314.375 " clip-rule="nonzero"/></clipPath><clipPath id="828fc5e62b"><rect x="0" width="1163" y="0" height="810"/></clipPath><mask id="bd9a5f36bf"><g filter="url(#b95c828b30)"><rect x="-192" width="2304" fill="#000000" y="-80.999999" height="971.999992" fill-opacity="0.3"/></g></mask><clipPath id="6bbd465473"><path d="M 269 0 L 1400 0 L 1400 810 L 269 810 Z M 269 0 " clip-rule="nonzero"/></clipPath><clipPath id="fb219d0606"><path d="M 0.230469 584.53125 L 1363.578125 -196.566406 L 1954.527344 834.894531 L 591.179688 1615.988281 Z M 0.230469 584.53125 " clip-rule="nonzero"/></clipPath><clipPath id="7552458523"><path d="M 0.230469 584.53125 L 1363.578125 -196.566406 L 1954.527344 834.894531 L 591.179688 1615.988281 Z M 0.230469 584.53125 " clip-rule="nonzero"/></clipPath><clipPath id="d975885bb0"><path d="M 1363.3125 -196.410156 L 1954.285156 835.089844 L 591.777344 1615.703125 L 269.898438 1053.886719 C 273.226562 841.613281 384.878906 635.835938 581.460938 523.207031 C 634.246094 492.96875 689.6875 471.410156 746.1875 458.078125 C 936.867188 413.042969 1110.199219 283.152344 1161.535156 94.085938 C 1190.523438 -12.683594 1252.511719 -132.929688 1363.3125 -196.410156 Z M 1363.3125 -196.410156 " clip-rule="nonzero"/></clipPath><clipPath id="f46e3445c6"><rect x="0" width="1400" y="0" height="810"/></clipPath><clipPath id="bcf0b8df78"><path d="M 0 0 L 802 0 L 802 810 L 0 810 Z M 0 0 " clip-rule="nonzero"/></clipPath><clipPath id="07b12db01c"><path d="M 1135.644531 292.21875 L -86.949219 1279.179688 L -833.644531 354.210938 L 388.945312 -632.75 Z M 1135.644531 292.21875 " clip-rule="nonzero"/></clipPath><clipPath id="5b5f770604"><path d="M 1135.644531 292.21875 L -86.949219 1279.179688 L -833.644531 354.210938 L 388.945312 -632.75 Z M 1135.644531 292.21875 " clip-rule="nonzero"/></clipPath><clipPath id="4984d00353"><path d="M -86.707031 1278.984375 L -833.4375 353.980469 L 388.402344 -632.371094 L 795.117188 -128.558594 C 825.414062 81.566406 747.726562 302.417969 571.441406 444.726562 C 524.105469 482.941406 472.773438 512.996094 419.09375 535.101562 C 237.941406 609.738281 87.339844 765.417969 66.566406 960.222656 C 54.835938 1070.234375 12.652344 1198.777344 -86.707031 1278.984375 Z M -86.707031 1278.984375 " clip-rule="nonzero"/></clipPath></defs><rect x="-192" width="2304" fill="#ffffff" y="-80.999999" height="971.999992" fill-opacity="1"/><rect x="-192" width="2304" fill="#0b0b0b" y="-80.999999" height="971.999992" fill-opacity="1"/><g clip-path="url(#69eacfc038)"><g clip-path="url(#44ba2bcaa7)"><g clip-path="url(#c6c1552b05)"><g clip-path="url(#83d3c0461a)"><path fill="#100e0e" d="M 474.777344 200.171875 L 1094.972656 1282.679688 L 2269.386719 609.828125 L 1649.191406 -472.679688 Z M 474.777344 200.171875 " fill-opacity="1" fill-rule="nonzero"/></g></g></g></g><g mask="url(#614854c91f)"><g transform="matrix(1, 0, 0, 1, 0, 0.000000000000039746)"><g clip-path="url(#828fc5e62b)"><g clip-path="url(#8dd7c928c0)"><g clip-path="url(#89a080dd86)"><g clip-path="url(#1da0551016)"><g clip-path="url(#b88d47213c)"><path fill="#100e0e" d="M 1248.175781 490.410156 L 516.011719 -416.558594 L -395.890625 319.589844 L 336.273438 1226.558594 Z M 1248.175781 490.410156 " fill-opacity="1" fill-rule="nonzero"/></g></g></g></g></g></g></g><g mask="url(#bd9a5f36bf)"><g transform="matrix(1, 0, 0, 1, 520, 0.000000000000039746)"><g clip-path="url(#f46e3445c6)"><g clip-path="url(#6bbd465473)"><g clip-path="url(#fb219d0606)"><g clip-path="url(#7552458523)"><g clip-path="url(#d975885bb0)"><path fill="#100e0e" d="M -79.488281 200.171875 L 549.175781 1297.457031 L 1749.386719 609.828125 L 1120.722656 -487.457031 Z M -79.488281 200.171875 " fill-opacity="1" fill-rule="nonzero"/></g></g></g></g></g></g></g><g clip-path="url(#bcf0b8df78)"><g clip-path="url(#07b12db01c)"><g clip-path="url(#5b5f770604)"><g clip-path="url(#4984d00353)"><path fill="#100e0e" d="M 1221.304688 490.410156 L 499.742188 -403.425781 L -395.890625 319.589844 L 325.671875 1213.425781 Z M 1221.304688 490.410156 " fill-opacity="1" fill-rule="nonzero"/></g></g></g></g></svg>